<?xml version="1.0" standalone="no"?><!DOCTYPE svg PUBLIC "-//W3C//DTD SVG 1.1//EN" "http://www.w3.org/Graphics/SVG/1.1/DTD/svg11.dtd"><svg t="1691420870664" class="icon" viewBox="0 0 1024 1024" version="1.1" xmlns="http://www.w3.org/2000/svg" p-id="5944" xmlns:xlink="http://www.w3.org/1999/xlink" width="200" height="200"><path d="M934.4 836.096h-844.8c-16.384 0-29.696-13.312-29.696-29.696V226.304l430.08 412.672c5.632 5.632 13.312 8.704 21.504 8.704 5.12 0 9.728-1.536 13.824-3.584 4.608-1.024 9.216-3.584 12.8-7.168l425.984-414.208v583.68c0.512 16.384-12.8 29.696-29.696 29.696z m-421.376-260.608l-404.48-387.584H911.36l-398.336 387.584zM934.4 128h-844.8C40.448 128 0.512 168.448 0.512 217.6v588.8c0 49.152 39.936 89.6 89.6 89.6h844.8c49.152 0 89.6-39.936 89.6-89.6v-588.8c-0.512-49.152-40.448-89.6-90.112-89.6z" p-id="5945"></path></svg>