<?xml version="1.0" standalone="no"?><!DOCTYPE svg PUBLIC "-//W3C//DTD SVG 1.1//EN" "http://www.w3.org/Graphics/SVG/1.1/DTD/svg11.dtd"><svg t="1691417666333" class="icon" viewBox="0 0 1024 1024" version="1.1" xmlns="http://www.w3.org/2000/svg" p-id="5510" xmlns:xlink="http://www.w3.org/1999/xlink" width="200" height="200"><path d="M511.5 2.2v54.2c24.6 0.1 48.3 8.8 67.1 24.6 3.6 4.7 7.9 8.9 12.6 12.4L956.8 482l1.1 1.1c11.8 13.1 11.1 33.2-1.6 45.4-5.6 5-12.9 7.7-20.5 7.5h-31.7c-30.7 0-55.6 24.3-55.6 54.2v321.7c0 30.7-24.2 55.7-54 55.7h-178V669.9c0-14.4-5.9-28.2-16.3-38.3-10.5-10.2-24.6-15.9-39.3-15.9H448.3c-14.8 0-28.9 5.7-39.3 15.9-10.4 10.1-16.3 23.9-16.3 38.3v297.7H218c-29.8 0-54-25-54-55.7V590.3c0-30-24.9-54.2-55.6-54.2H87.6c-8.3-0.2-16.2-3.7-21.9-9.7-5.7-5.9-8.6-13.9-8.2-22.1-0.3-7.8 2.6-15.5 8.1-21.1l1.1-1.1L436.7 89c19.3-20.8 46.4-32.5 74.8-32.5V2.2z m0 0c-43.8-0.1-85.6 18-115.7 49.8l-370 393.3c-15.5 15.7-24.1 37-23.8 59-0.4 22.5 8.4 44.2 24.5 60.3 16.1 16.1 38.1 25.3 61.1 25.6h20.6v321.7c0 60.5 49.2 109.9 109.6 109.9h193.9c9.9 0 19.4-3.8 26.2-10.7 6.9-6.9 10.6-16.3 10.3-25.9V669.9H561v315.3c-0.3 9.6 3.4 19 10.3 25.9s16.3 10.8 26.2 10.7h197c60.3 0 109.6-49.3 109.6-109.9V590.3h31.8c22.5 0.3 44.2-8.3 60.3-23.9 33.8-33 34.5-87.1 1.6-121L627.7 52c-2.8-1.3-5-3.6-6.2-6.5-29.8-27.9-69-43.4-109.8-43.4h-0.2v0.1z" p-id="5511"></path></svg>