<?xml version="1.0" standalone="no"?><!DOCTYPE svg PUBLIC "-//W3C//DTD SVG 1.1//EN" "http://www.w3.org/Graphics/SVG/1.1/DTD/svg11.dtd"><svg t="1700670716800" class="icon" viewBox="0 0 1024 1024" version="1.1" xmlns="http://www.w3.org/2000/svg" p-id="7392" xmlns:xlink="http://www.w3.org/1999/xlink" width="200" height="200"><path d="M998.62211445 171.23807384c-16.65294032-15.61730971-42.91653278-14.87165566-58.53384248 1.8227099L387.64147547 761.25754913l-301.78276187-297.35026284c-16.32153853-16.07298718-42.54370576-15.90728628-58.61669294 0.41425225-16.07298718 16.2801133-15.86586107 42.54370576 0.45567747 58.57526771l332.02317591 327.09357417c0.12427568 0.12427568 0.28997657 0.1657009 0.41425224 0.28997657s0.1657009 0.28997657 0.28997657 0.41425225c2.60978915 2.48551348 5.75810623 3.89397111 8.78214764 5.5509801 1.49130809 0.86992972 2.77549005 2.15411168 4.34964859 2.77549005 4.88817651 1.90556034 10.0663296 2.89976573 15.20305745 2.89976574 5.42670444 0 10.85340887-1.07705584 15.9072863-3.23116752 1.69843422-0.70422882 3.02404141-2.15411168 4.59819993-3.06546663 3.10689185-1.82270989 6.33805938-3.3554432 8.98927377-6.04808281 0.12427568-0.12427568 0.1657009-0.33140179 0.28997657-0.45567747 0.08285045-0.12427568 0.24855135-0.1657009 0.37282702-0.28997658L1000.40339911 229.77191633c15.74158539-16.6115151 14.87165566-42.83368233-1.78128466-58.53384249z" p-id="7393"></path></svg>