<?xml version="1.0" standalone="no"?><!DOCTYPE svg PUBLIC "-//W3C//DTD SVG 1.1//EN" "http://www.w3.org/Graphics/SVG/1.1/DTD/svg11.dtd"><svg t="1691420957994" class="icon" viewBox="0 0 1024 1024" version="1.1" xmlns="http://www.w3.org/2000/svg" p-id="6375" xmlns:xlink="http://www.w3.org/1999/xlink" width="200" height="200"><path d="M664.9 988c-18.2 0.2-35.6-7.2-48.2-20.3-15.8-17.2-66.2-61.9-107.3-61.9-40.9 0-91.9 44.9-106.6 60.8-18.8 19.4-47.5 25.3-72.5 15l-1.4-0.6-125.1-69.2-1.2-0.9c-22.9-16.1-31.3-46.1-20.1-71.7 0.1-0.2 11.5-26.3 11.5-50.1C194 716.9 134.5 658 61.4 658H57l-0.8 0.1c-20.9 0-38-18.4-43.5-46.9C12.2 609 2 555 2 512.4c0-42.5 10.2-96.6 10.7-98.8 5.5-28.8 22.9-47.3 44.3-46.9h4.4c73.1 0 132.6-58.8 132.6-131 0-23.8-11.4-49.9-11.6-50.2-11.1-25.7-2.6-55.6 20.3-71.7l1.3-0.9 132-71.7 1.4-0.6c24.9-9.8 53.2-4 72.2 14.8 15.6 16.2 65 58.2 105 58.2 39.6 0 88.7-41.2 104.2-57.1 19.2-18.6 47.5-24.2 72.3-14.2l1.4 0.6 127.5 70 1.3 0.9c22.9 16 31.4 46 20.3 71.7-0.1 0.2-11.6 26.3-11.6 50.1 0 72.2 59.5 131 132.6 131h4.4c21.2-0.4 38.7 18.1 44.2 46.9 0.5 2.2 10.7 56.3 10.7 98.8 0 42.6-10.2 96.6-10.7 98.8-5.5 28.8-23 47.3-44.2 46.8h-4.4C889.5 657.9 830 716.7 830 789c0 23.9 11.4 49.9 11.6 50.2 11.1 25.7 2.6 55.6-20.3 71.6l-1.4 1-129.7 70.9-1.4 0.5c-7.5 3.3-15.7 4.9-23.9 4.8z m-6.4-68.9c1.2 0.6 2.5 1 3.9 1h0.2l119.1-64.9c-2.9-6.6-16-38.4-16-71.8 0-99.6 79.7-181.2 179.6-186.3 1.4-7.8 9.2-51.9 9.2-84.8s-7.8-76.9-9.2-84.7c-99.9-5.2-179.6-86.8-179.6-186.3 0-33.4 13.2-65.3 16-71.9l-117.3-64.1h-0.4c-1.5 0-3.1 0.4-4.4 1.2-13.4 13.2-27.9 25.2-43.4 35.8-36.1 25-70.3 37.7-101.5 37.7-31.6 0-66-12.9-102.4-38.4-15.6-10.9-30.1-23.2-43.6-36.6-1.4-0.7-2.9-1.1-4.5-1.1h-0.4l-121.4 65.6c2.9 6.7 16 38.6 16 71.8 0 99.6-79.7 181.2-179.6 186.3-1.5 7.8-9.2 51.7-9.2 84.7s7.8 76.9 9.2 84.7c99.9 5.1 179.6 86.7 179.6 186.3 0 33.4-13.3 65.5-16 71.9l114.9 63.2h0.3c1.3 0 2.6-0.3 3.8-1 2.2-2.2 19.3-20.2 44-38 36.9-26.7 71.9-40.1 104-40.1 32.6 0 67.9 13.7 104.9 40.9 24.8 18.5 42.1 36.6 44.2 38.9z m-146.6-237c-93.8 0-170.2-76.2-170.2-169.8S418 342.6 511.9 342.6c93.9 0 170.3 76.1 170.3 169.7s-76.4 169.8-170.3 169.8z m0-271.7c-56.3 2.5-99.9 50.2-97.3 106.5 2.4 52.7 44.6 95 97.3 97.3 56.3-1.5 100.7-48.3 99.3-104.5-1.5-54.3-45.1-97.9-99.3-99.3z" p-id="6376"></path></svg>