<?xml version="1.0" standalone="no"?><!DOCTYPE svg PUBLIC "-//W3C//DTD SVG 1.1//EN" "http://www.w3.org/Graphics/SVG/1.1/DTD/svg11.dtd"><svg t="1700897430870" class="icon" viewBox="0 0 1024 1024" version="1.1" xmlns="http://www.w3.org/2000/svg" p-id="7300" xmlns:xlink="http://www.w3.org/1999/xlink" width="200" height="200"><path d="M512 810.666667c-164.949333 0-298.666667-133.717333-298.666667-298.666667S347.050667 213.333333 512 213.333333 810.666667 347.050667 810.666667 512 676.949333 810.666667 512 810.666667z m0-51.2c136.669867 0 247.466667-110.7968 247.466667-247.466667S648.669867 264.533333 512 264.533333 264.533333 375.330133 264.533333 512 375.330133 759.466667 512 759.466667zM512 878.933333a25.6 25.6 0 0 1 25.6 25.6v68.266667a25.6 25.6 0 0 1-51.2 0v-68.266667a25.6 25.6 0 0 1 25.6-25.6z m-295.662933-107.4688a25.6 25.6 0 0 1 36.1984 36.1984l-48.264534 48.2816a25.6 25.6 0 0 1-36.215466-36.215466z m555.127466 0a25.6 25.6 0 0 1 36.1984 0l48.2816 48.264534a25.6 25.6 0 0 1-36.215466 36.215466l-48.264534-48.2816a25.6 25.6 0 0 1 0-36.1984zM972.8 486.4a25.6 25.6 0 0 1 0 51.2h-68.266667a25.6 25.6 0 0 1 0-51.2z m-853.333333 0a25.6 25.6 0 0 1 0 51.2H51.2a25.6 25.6 0 0 1 0-51.2zM819.729067 168.055467a25.6 25.6 0 0 1 36.215466 36.215466l-48.2816 48.264534a25.6 25.6 0 0 1-36.1984-36.1984z m-651.6736 0a25.6 25.6 0 0 1 36.215466 0l48.264534 48.2816a25.6 25.6 0 0 1-36.1984 36.1984L168.055467 204.288a25.6 25.6 0 0 1 0-36.215467zM512 25.6A25.6 25.6 0 0 1 537.6 51.2v68.266667a25.6 25.6 0 0 1-51.2 0V51.2A25.6 25.6 0 0 1 512 25.6z" fill="#404040" p-id="7301"></path></svg>