<?xml version="1.0" standalone="no"?><!DOCTYPE svg PUBLIC "-//W3C//DTD SVG 1.1//EN" "http://www.w3.org/Graphics/SVG/1.1/DTD/svg11.dtd"><svg t="1691420824016" class="icon" viewBox="0 0 1024 1024" version="1.1" xmlns="http://www.w3.org/2000/svg" p-id="5799" xmlns:xlink="http://www.w3.org/1999/xlink" width="200" height="200"><path d="M504.4 595c-78.1 0-151.5-31.5-208.6-88.6S206.7 376 206.7 297.9s31.5-151.5 88.6-208.6C353 31.7 425.8 0.2 504.4 0.2 582.5 0.2 655.9 31.7 713 88.8s88.6 130.5 88.6 208.6-31.5 151.4-88.6 208.5C660.6 564.1 582.5 595 504.4 595z m0-516.7c-125.3 0-224.3 99-224.3 224.3s99 224.3 224.3 224.3 224.3-99 224.3-224.3c0-124.7-99-224.3-224.3-224.3z m365.3 616.3c-47.2-47.2-99-83.3-162-109.5-21-5.2-41.9 0-47.2 21-10.5 21 0 41.9 21 47.2 52.4 21 99 52.4 141 93.8 41.9 41.9 72.8 88.6 93.8 141 15.7 36.7 26.2 67.6 31.5 104.3 5.2 15.7 15.7 31.5 36.7 31.5 21 0 41.9-21 36.7-41.9-5.2-41.9-15.7-83.3-36.7-125.3-31.5-57.8-68.2-115.5-114.8-162.1zM102.4 887.5c21-52.4 52.4-99 93.8-141 41.9-36.7 88.6-67.6 141-93.8 21-10.5 26.2-31.5 21-47.2-10.5-21-31.5-26.2-47.2-21-62.9 26.2-114.8 62.9-162 109.5-47.2 47.2-83.3 104.3-109.5 162-15.7 42-26.2 83.3-36.7 125.3-5.2 21 15.7 41.9 36.7 41.9 15.7 0 31.5-15.7 36.7-31.5 0-30.8 10.5-67.5 26.2-104.2z" p-id="5800"></path></svg>